# xmcd CD database file
#
# Track frame offsets:
#	187
#	23755
#	36190
#	47737
#	69990
#	81900
#	91490
#	108835
#	123662
#	132615
#	148940
#	158425
#	170542
#
# Disc length: 2485 seconds
#
# Revision: 1
# Processed by: cddbd v1.5.2PL0 Copyright (c) Steve Scherf et al.
# Submitted via: CDex 1.70beta2
#
DISCID=b009b30d
DTITLE=ダイナマイト・シゲ - 新世紀GPXサイバーフォーミュラ11
DYEAR=1992
DGENRE=Anime
TTITLE0=DREAMER ON THE ROAD
TTITLE1=BEGINNING OF THE RACE
TTITLE2=FIGHTING MACHINE
TTITLE3=FLAME!
TTITLE4=AKF-11
TTITLE5=THE KNIGHT
TTITLE6=バラードのように…
TTITLE7=THE RIVAL
TTITLE8=LADY CREA
TTITLE9=Winners
TTITLE10=DISAPPOINTMENT
TTITLE11=IN THE TWILIGHT
TTITLE12=BORN TO BE CHAMP
EXTD=YEAR: 1992
EXTT0=
EXTT1=
EXTT2=
EXTT3=
EXTT4=
EXTT5=
EXTT6=
EXTT7=
EXTT8=
EXTT9=
EXTT10=
EXTT11=
EXTT12=
PLAYORDER=
